# xmcd CD database file
#
# Track frame offsets:
#	150
#	21760
#	42252
#
# Disc length: 849 seconds
#
# Revision: 0
# Processed by: cddbd v1.5PL3 Copyright (c) Steve Scherf et al.
# Submitted via: CDex 1.50beta10
#
DISCID=1b034f03
DTITLE=安倍麻美 - 理由
DYEAR=2003
DGENRE=J-POP
TTITLE0=理由
TTITLE1=W・S・S→
TTITLE2=理由 (Instrumental)
EXTD=YEAR: 2003
EXTT0=
EXTT1=
EXTT2=
PLAYORDER=
